<svg xmlns="http://www.w3.org/2000/svg" viewBox="0 0 192 192" width="192" height="192">
  <defs>
    <radialGradient id="rg" cx="40%" cy="38%" r="62%">
      <stop offset="0%" stop-color="#FFE97A"/>
      <stop offset="45%" stop-color="#D4A82A"/>
      <stop offset="100%" stop-color="#8B6010"/>
    </radialGradient>
  </defs>
  <rect width="192" height="192" rx="40" fill="#FFFFFF"/>
  <g transform="translate(96,96)" fill="url(#rg)">
    <g transform="rotate(0)">    <polygon points="0,0 -3,-28 3,-52"/></g>
    <g transform="rotate(17.14)"><polygon points="0,0 -3,-28 3,-52"/></g>
    <g transform="rotate(34.28)"><polygon points="0,0 -3,-28 3,-52"/></g>
    <g transform="rotate(51.42)"><polygon points="0,0 -3,-28 3,-52"/></g>
    <g transform="rotate(68.56)"><polygon points="0,0 -3,-28 3,-52"/></g>
    <g transform="rotate(85.7)"> <polygon points="0,0 -3,-28 3,-52"/></g>
    <g transform="rotate(102.84)"><polygon points="0,0 -3,-28 3,-52"/></g>
    <g transform="rotate(119.98)"><polygon points="0,0 -3,-28 3,-52"/></g>
    <g transform="rotate(137.12)"><polygon points="0,0 -3,-28 3,-52"/></g>
    <g transform="rotate(154.26)"><polygon points="0,0 -3,-28 3,-52"/></g>
    <g transform="rotate(171.4)"><polygon points="0,0 -3,-28 3,-52"/></g>
    <g transform="rotate(188.54)"><polygon points="0,0 -3,-28 3,-52"/></g>
    <g transform="rotate(205.68)"><polygon points="0,0 -3,-28 3,-52"/></g>
    <g transform="rotate(222.82)"><polygon points="0,0 -3,-28 3,-52"/></g>
    <g transform="rotate(239.96)"><polygon points="0,0 -3,-28 3,-52"/></g>
    <g transform="rotate(257.1)"><polygon points="0,0 -3,-28 3,-52"/></g>
    <g transform="rotate(274.24)"><polygon points="0,0 -3,-28 3,-52"/></g>
    <g transform="rotate(291.38)"><polygon points="0,0 -3,-28 3,-52"/></g>
    <g transform="rotate(308.52)"><polygon points="0,0 -3,-28 3,-52"/></g>
    <g transform="rotate(325.66)"><polygon points="0,0 -3,-28 3,-52"/></g>
    <g transform="rotate(342.8)"><polygon points="0,0 -3,-28 3,-52"/></g>
  </g>
  <circle cx="96" cy="96" r="18" fill="url(#rg)"/>
</svg>
